<svg width="28" height="26" viewBox="0 0 28 26" fill="none" xmlns="http://www.w3.org/2000/svg">
<path d="M10.5002 23.8334H17.5002C23.3335 23.8334 25.6668 21.6667 25.6668 16.2501V9.75008C25.6668 4.33341 23.3335 2.16675 17.5002 2.16675H10.5002C4.66683 2.16675 2.3335 4.33341 2.3335 9.75008V16.2501C2.3335 21.6667 4.66683 23.8334 10.5002 23.8334Z" stroke="white" stroke-width="1.5" stroke-linecap="round" stroke-linejoin="round"/>
<path d="M18.0833 20.0416C19.3667 20.0416 20.4167 19.0666 20.4167 17.8749V8.12492C20.4167 6.93325 19.3667 5.95825 18.0833 5.95825C16.8 5.95825 15.75 6.93325 15.75 8.12492V17.8749C15.75 19.0666 16.7883 20.0416 18.0833 20.0416Z" stroke="white" stroke-width="1.5" stroke-linecap="round" stroke-linejoin="round"/>
<path d="M9.91683 20.0417C11.2002 20.0417 12.2502 19.0667 12.2502 17.8751V14.0834C12.2502 12.8917 11.2002 11.9167 9.91683 11.9167C8.6335 11.9167 7.5835 12.8917 7.5835 14.0834V17.8751C7.5835 19.0667 8.62183 20.0417 9.91683 20.0417Z" stroke="white" stroke-width="1.5" stroke-linecap="round" stroke-linejoin="round"/>
</svg>
