<svg width="27" height="24" viewBox="0 0 27 24" fill="none" xmlns="http://www.w3.org/2000/svg">
<path d="M20.0517 13.55C19.5909 13.96 19.3276 14.55 19.3934 15.18C19.4922 16.26 20.5783 17.05 21.7632 17.05H23.8478V18.24C23.8478 20.31 21.9936 22 19.7226 22H7.12762C4.85658 22 3.00244 20.31 3.00244 18.24V11.51C3.00244 9.44001 4.85658 7.75 7.12762 7.75H19.7226C21.9936 7.75 23.8478 9.44001 23.8478 11.51V12.95H21.6316C21.0172 12.95 20.4577 13.17 20.0517 13.55Z" stroke-width="1.5" stroke-linecap="round" stroke-linejoin="round"/>
<path d="M3.00244 12.4101V7.8401C3.00244 6.6501 3.80334 5.59006 5.02115 5.17006L13.7323 2.17006C15.0927 1.70006 16.5519 2.62009 16.5519 3.95009V7.75008" stroke-width="1.5" stroke-linecap="round" stroke-linejoin="round"/>
<path d="M25.0086 13.9702V16.0302C25.0086 16.5802 24.5259 17.0302 23.9115 17.0502H21.7611C20.5762 17.0502 19.4901 16.2602 19.3914 15.1802C19.3255 14.5502 19.5888 13.9602 20.0496 13.5502C20.4556 13.1702 21.0151 12.9502 21.6295 12.9502H23.9115C24.5259 12.9702 25.0086 13.4202 25.0086 13.9702Z" stroke-width="1.5" stroke-linecap="round" stroke-linejoin="round"/>
<path d="M7.93896 12H15.6188" stroke-width="1.5" stroke-linecap="round" stroke-linejoin="round"/>
</svg>
