<svg width="25" height="9" viewBox="0 0 25 9" fill="none" xmlns="http://www.w3.org/2000/svg">
<path d="M0.888 9V0.599999H2.064L5.088 6.456L8.088 0.599999H9.276V9H8.268V2.4L5.46 7.8H4.704L1.896 2.412V9H0.888ZM10.5202 9L13.6162 0.599999H14.6842L17.7682 9H16.7002L15.9322 6.84H12.3562L11.5762 9H10.5202ZM12.6562 6.024H15.6322L14.1442 1.872L12.6562 6.024ZM18.5849 9L21.1529 4.764L18.5849 0.599999H19.7249L21.7889 3.96L23.7569 0.599999H24.8849L22.3169 4.812L24.8969 9H23.7569L21.6809 5.628L19.7249 9H18.5849Z" fill="#172B4D"/>
</svg>
