<svg width="34" height="34" viewBox="0 0 34 34" fill="none" xmlns="http://www.w3.org/2000/svg">
<path d="M25.9673 21.4259C25.0422 23.2956 23.5255 24.9044 21.5182 25.921C16.5938 28.415 10.573 26.4425 8.07895 21.5181C5.58491 16.5936 7.55742 10.5728 12.4819 8.07881C17.4063 5.58477 23.4271 7.55728 25.9212 12.4817C26.7389 14.0965 27.0788 15.8299 26.9847 17.5254L17 16.9999" stroke="#292D32" stroke-width="1.5" stroke-miterlimit="10" stroke-linecap="round" stroke-linejoin="round"/>
<path d="M22.9858 17.3761C23.0565 16.3426 22.8542 15.2793 22.3527 14.2891C20.8572 11.3362 17.242 10.1518 14.2891 11.6473C11.3362 13.1428 10.1519 16.758 11.6474 19.7109C13.1429 22.6638 16.7581 23.8481 19.7109 22.3526C20.5228 21.9415 21.2085 21.37 21.7283 20.692" stroke="#292D32" stroke-width="1.5" stroke-miterlimit="10" stroke-linecap="round" stroke-linejoin="round"/>
</svg>
