<svg width="30" height="10" viewBox="0 0 30 10" fill="none" xmlns="http://www.w3.org/2000/svg">
<path d="M1.992 0.636V5.928C1.992 6.672 2.172 7.224 2.532 7.584C2.9 7.944 3.408 8.124 4.056 8.124C4.696 8.124 5.196 7.944 5.556 7.584C5.924 7.224 6.108 6.672 6.108 5.928V0.636H7.2V5.916C7.2 6.612 7.06 7.2 6.78 7.68C6.5 8.152 6.12 8.504 5.64 8.736C5.168 8.968 4.636 9.084 4.044 9.084C3.452 9.084 2.916 8.968 2.436 8.736C1.964 8.504 1.588 8.152 1.308 7.68C1.036 7.2 0.9 6.612 0.9 5.916V0.636H1.992ZM11.6737 9.084C11.1217 9.084 10.6257 8.988 10.1857 8.796C9.75366 8.596 9.41366 8.324 9.16566 7.98C8.91766 7.628 8.78966 7.224 8.78166 6.768H9.94566C9.98566 7.16 10.1457 7.492 10.4257 7.764C10.7137 8.028 11.1297 8.16 11.6737 8.16C12.1937 8.16 12.6017 8.032 12.8977 7.776C13.2017 7.512 13.3537 7.176 13.3537 6.768C13.3537 6.448 13.2657 6.188 13.0897 5.988C12.9137 5.788 12.6937 5.636 12.4297 5.532C12.1657 5.428 11.8097 5.316 11.3617 5.196C10.8097 5.052 10.3657 4.908 10.0297 4.764C9.70166 4.62 9.41766 4.396 9.17766 4.092C8.94566 3.78 8.82966 3.364 8.82966 2.844C8.82966 2.388 8.94566 1.984 9.17766 1.632C9.40966 1.28 9.73366 1.008 10.1497 0.816C10.5737 0.624 11.0577 0.528 11.6017 0.528C12.3857 0.528 13.0257 0.724 13.5217 1.116C14.0257 1.508 14.3097 2.028 14.3737 2.676H13.1737C13.1337 2.356 12.9657 2.076 12.6697 1.836C12.3737 1.588 11.9817 1.464 11.4937 1.464C11.0377 1.464 10.6657 1.584 10.3777 1.824C10.0897 2.056 9.94566 2.384 9.94566 2.808C9.94566 3.112 10.0297 3.36 10.1977 3.552C10.3737 3.744 10.5857 3.892 10.8337 3.996C11.0897 4.092 11.4457 4.204 11.9017 4.332C12.4537 4.484 12.8977 4.636 13.2337 4.788C13.5697 4.932 13.8577 5.16 14.0977 5.472C14.3377 5.776 14.4577 6.192 14.4577 6.72C14.4577 7.128 14.3497 7.512 14.1337 7.872C13.9177 8.232 13.5977 8.524 13.1737 8.748C12.7497 8.972 12.2497 9.084 11.6737 9.084ZM18.6686 0.636C19.5806 0.636 20.3686 0.808 21.0326 1.152C21.7046 1.488 22.2166 1.972 22.5686 2.604C22.9286 3.236 23.1086 3.98 23.1086 4.836C23.1086 5.692 22.9286 6.436 22.5686 7.068C22.2166 7.692 21.7046 8.172 21.0326 8.508C20.3686 8.836 19.5806 9 18.6686 9H16.0646V0.636H18.6686ZM18.6686 8.1C19.7486 8.1 20.5726 7.816 21.1406 7.248C21.7086 6.672 21.9926 5.868 21.9926 4.836C21.9926 3.796 21.7046 2.984 21.1286 2.4C20.5606 1.816 19.7406 1.524 18.6686 1.524H17.1566V8.1H18.6686ZM29.697 0.636V1.524H27.417V9H26.325V1.524H24.033V0.636H29.697Z" fill="#172B4D"/>
</svg>
