<svg xmlns="http://www.w3.org/2000/svg" width="106.262" height="109.693" viewBox="0 0 106.262 109.693">
  <g id="Group_383" data-name="Group 383" transform="translate(-7237.109 9632.599)">
    <g id="Group_382" data-name="Group 382" transform="translate(7102 -9843)">
      <g id="Touch-id" transform="translate(136 212)">
        <path id="Path" d="M13,0A52.74,52.74,0,0,0,1.015,45" transform="translate(0.625 19)" fill="none" stroke="#dfe1e6" stroke-linecap="round" stroke-linejoin="round" stroke-miterlimit="10" stroke-width="3"/>
        <path id="Path-2" data-name="Path" d="M61,9.738A49.977,49.977,0,0,0,21.009,1.1,50.831,50.831,0,0,0,0,11" transform="translate(21.625)" fill="none" stroke="#fec42d" stroke-linecap="round" stroke-linejoin="round" stroke-miterlimit="10" stroke-width="3"/>
        <path id="Path-3" data-name="Path" d="M13,27A55.326,55.326,0,0,0,0,0" transform="translate(90.625 16)" fill="none" stroke="#dfe1e6" stroke-linecap="round" stroke-linejoin="round" stroke-miterlimit="10" stroke-width="3"/>
        <path id="Path-4" data-name="Path" d="M0,50C10.37,36.806,15.307,18.545,11.962,0" transform="translate(40.625 53)" fill="none" stroke="#dfe1e6" stroke-linecap="round" stroke-linejoin="round" stroke-miterlimit="10" stroke-width="3"/>
        <path id="Path-5" data-name="Path" d="M40,16.678q-.348-3.089-.971-6.2l.015-.005a13.024,13.024,0,1,0-25.531,5.16C13.887,18.8,17.982,41.136,0,58" transform="translate(26.625 40)" fill="none" stroke="#dfe1e6" stroke-linecap="round" stroke-linejoin="round" stroke-miterlimit="10" stroke-width="3"/>
        <path id="Path-6" data-name="Path" d="M0,37A67.467,67.467,0,0,0,13,0" transform="translate(53.625 69)" fill="none" stroke="#fec42d" stroke-linecap="round" stroke-linejoin="round" stroke-miterlimit="10" stroke-width="3"/>
        <path id="Path-7" data-name="Path" d="M10.768,0a29.733,29.733,0,0,0-.393,12.45l.028-.006C12.673,25.033,8.306,37.392,0,45" transform="translate(15.625 45)" fill="none" stroke="#dfe1e6" stroke-linecap="round" stroke-linejoin="round" stroke-miterlimit="10" stroke-width="3"/>
        <path id="Path-8" data-name="Path" d="M39.317,74a81.4,81.4,0,0,0,6.97-53.189C45.347,16.367,37.668-3.8,15.089.632A26.521,26.521,0,0,0,0,9.37" transform="translate(31.625 27)" fill="none" stroke="#fec42d" stroke-linecap="round" stroke-linejoin="round" stroke-miterlimit="10" stroke-width="3"/>
        <path id="Path-9" data-name="Path" d="M35,0C15.047,4.636,2.252,24.74,6.319,45.372l.019,0A19.63,19.63,0,0,1,0,64" transform="translate(7.625 16)" fill="none" stroke="#dfe1e6" stroke-linecap="round" stroke-linejoin="round" stroke-miterlimit="10" stroke-width="3"/>
        <path id="Path-10" data-name="Path" d="M33.848,77a104.5,104.5,0,0,0,1.284-45.155h-.007C31.644,13.577,16.837.785,0,0" transform="translate(53.625 13)" fill="none" stroke="#dfe1e6" stroke-linecap="round" stroke-linejoin="round" stroke-miterlimit="10" stroke-width="3"/>
      </g>
    </g>
  </g>
</svg>
