<svg xmlns="http://www.w3.org/2000/svg" width="19.95" height="22" viewBox="0 0 19.95 22">
  <path id="Icon_simple-email" data-name="Icon simple-email" d="M21.606,10.154a11.346,11.346,0,0,1-.366,2.461,7.121,7.121,0,0,1-.957,2.161,5.049,5.049,0,0,1-1.622,1.536,4.578,4.578,0,0,1-2.369.584,3.434,3.434,0,0,1-1.713-.419,2.933,2.933,0,0,1-1.158-1.186,3.669,3.669,0,0,1-3.1,1.559,3.156,3.156,0,0,1-2.71-1.457A4.77,4.77,0,0,1,6.935,13.7a7.281,7.281,0,0,1-.088-2.2,10.23,10.23,0,0,1,.671-2.7,7.331,7.331,0,0,1,1.24-2.066,5.246,5.246,0,0,1,1.7-1.317,4.757,4.757,0,0,1,2.073-.461,6.446,6.446,0,0,1,1.24.106,5.076,5.076,0,0,1,.962.289,5.2,5.2,0,0,1,.8.421c.243.157.488.319.731.484l-.6,6.929a2.3,2.3,0,0,0,.018.811,1.135,1.135,0,0,0,.247.5.891.891,0,0,0,.4.261,1.49,1.49,0,0,0,1.41-.278,3.006,3.006,0,0,0,.756-.962,6.2,6.2,0,0,0,.509-1.446,9.923,9.923,0,0,0,.223-1.8,11.509,11.509,0,0,0-.283-3.365A6.689,6.689,0,0,0,17.7,4.3a5.784,5.784,0,0,0-2.233-1.677,8.1,8.1,0,0,0-3.253-.6A7.182,7.182,0,0,0,9,2.733,7.381,7.381,0,0,0,6.554,4.677,9.329,9.329,0,0,0,4.954,7.6a13.177,13.177,0,0,0-.674,3.643,12.114,12.114,0,0,0,.344,3.717,6.714,6.714,0,0,0,1.358,2.664,5.668,5.668,0,0,0,2.3,1.6,8.827,8.827,0,0,0,3.176.531,10.877,10.877,0,0,0,2.084-.224c.344-.069.67-.151.98-.242a7.377,7.377,0,0,0,.844-.3l.436,1.96a4.838,4.838,0,0,1-.944.467,9.091,9.091,0,0,1-1.116.323A10.892,10.892,0,0,1,11.411,22a12.227,12.227,0,0,1-4.251-.685,7.823,7.823,0,0,1-3.1-2.037A8.556,8.556,0,0,1,2.2,15.914a14.349,14.349,0,0,1-.52-4.67,14.242,14.242,0,0,1,.894-4.482A11.092,11.092,0,0,1,4.728,3.2,9.81,9.81,0,0,1,8.013.852,10.283,10.283,0,0,1,12.266,0a10.735,10.735,0,0,1,4.121.738,8.016,8.016,0,0,1,2.975,2.076,8.519,8.519,0,0,1,1.765,3.207A12.264,12.264,0,0,1,21.606,10.154ZM9.8,11.5a4.677,4.677,0,0,0,.242,2.319,1.243,1.243,0,0,0,1.2.784,1.321,1.321,0,0,0,.41-.076,1.461,1.461,0,0,0,.472-.283,2.516,2.516,0,0,0,.478-.577,4.431,4.431,0,0,0,.44-.976l.47-5.383a2.809,2.809,0,0,0-.731-.1,2.529,2.529,0,0,0-1.217.279,2.409,2.409,0,0,0-.862.819,4.812,4.812,0,0,0-.572,1.347A11.428,11.428,0,0,0,9.8,11.5Z" transform="translate(-1.67)" fill="#c1c7d0"/>
</svg>
